<svg width="36" height="36" viewBox="0 0 36 36" fill="none" xmlns="http://www.w3.org/2000/svg">
<path d="M25.2028 17.4981C25.4295 17.4388 25.6597 17.5818 25.7155 17.8121L26.0853 19.3399C26.1411 19.5667 26.0016 19.8004 25.7748 19.8562C25.5481 19.9155 25.3179 19.7725 25.2621 19.5423L24.8923 18.0144C24.8365 17.7876 24.976 17.5539 25.2028 17.4981ZM13.7437 6.32513C13.6147 6.12281 13.674 5.86119 13.8623 5.73213L15.167 4.87052C15.3658 4.74145 15.6274 4.80075 15.7565 4.99261C15.8855 5.19493 15.8262 5.45655 15.6379 5.58562L14.3333 6.44722C14.1379 6.57978 13.8763 6.52048 13.7437 6.32513Z" fill="white"/>
<path fill-rule="evenodd" clip-rule="evenodd" d="M20.4834 11.6665C18.9736 11.3262 17.3533 11.6059 16.0254 12.5064C18.0242 11.8366 20.323 12.3006 21.9136 13.9087C24.1531 16.1726 24.1531 19.8597 21.9136 22.1236C21.645 22.3957 21.352 22.6364 21.0415 22.8422C21.8613 22.5596 22.6357 22.0992 23.288 21.4399C24.8716 19.839 25.3354 17.5264 24.6793 15.5087C22.8524 14.7881 21.3567 13.4102 20.4834 11.6665Z" fill="#FFAE54"/>
<path d="M29.9048 24.6555L29.9047 24.6557C26.2746 31.3653 17.9472 33.8163 11.3168 30.1555C4.68401 26.4933 2.23883 18.0795 5.8711 11.366C8.26102 6.94871 12.6867 4.3742 17.3243 4.17613C17.9397 4.14985 18.4165 4.47408 18.7479 5.04909C19.0872 5.63801 19.2384 6.44662 19.1575 7.21144C19.1262 7.50768 19.1102 7.80831 19.1102 8.11249C19.1102 9.54014 19.4629 10.8854 20.0858 12.066C17.2023 10.9772 13.8842 12.1714 12.3692 14.9685C10.7094 18.0332 11.8263 21.8944 14.8695 23.5762C17.9165 25.26 21.7454 24.1202 23.4066 21.0532L23.4068 21.0527C24.3364 19.3326 24.3934 17.3611 23.726 15.665C24.8858 16.2602 26.2005 16.596 27.5937 16.596C28.3747 16.596 29.1319 16.4903 29.8514 16.2922C30.2625 16.1789 30.7032 16.2274 31.0325 16.3961C31.3509 16.5591 31.5403 16.8153 31.5611 17.1459C31.7201 19.6713 31.1965 22.2704 29.9048 24.6555Z" fill="url(#paint0_radial)" stroke="#AC562A" stroke-width="1.0716"/>
<path d="M26.3922 21.8933L26.8978 21.7157C26.8978 21.7158 26.8978 21.7158 26.8978 21.7159C27.2545 22.7316 26.7925 23.616 26.4524 24.2671C26.4419 24.2872 26.4315 24.307 26.4213 24.3267C26.2151 24.7224 26.0507 25.0444 25.9759 25.3662C25.8584 25.8745 25.8761 26.3475 26.0204 26.7043C26.1554 27.0382 26.411 27.302 26.8703 27.4238C27.1761 27.5032 27.6454 27.3867 28.2629 27.0054C30.6405 24.1904 31.7246 20.6449 31.5142 17.1632C31.4942 16.833 31.306 16.5764 30.9889 16.4124C30.661 16.2427 30.2215 16.1923 29.8105 16.3032C29.1033 16.4942 28.3599 16.596 27.5936 16.596C26.181 16.596 24.8489 16.2507 23.6774 15.6399C24.3631 17.3378 24.2926 19.2704 23.4512 20.9143C23.3145 21.1816 23.1573 21.4412 22.9797 21.691C23.334 21.5814 23.78 21.3733 24.3307 21.0282C25.1574 20.5119 26.0888 21.0247 26.3922 21.8933ZM26.3922 21.8933C26.6712 22.6875 26.3088 23.383 25.9461 24.0791C25.7465 24.4622 25.5468 24.8455 25.4539 25.2455L26.3922 21.8933ZM16.7442 11.7729L16.722 11.7769L16.7003 11.7827C15.3541 12.1403 14.2721 11.9686 13.4439 11.5275C12.6076 11.0822 11.9885 10.3398 11.6196 9.49262C11.2494 8.64236 11.1447 7.71676 11.3046 6.93602C11.4627 6.16403 11.8681 5.56753 12.4994 5.26458C14.1721 4.54958 15.956 4.18461 17.7417 4.17022C18.249 4.16613 18.6512 4.44621 18.9257 4.93854C19.2065 5.44217 19.3194 6.12358 19.2184 6.75672C19.1475 7.20085 19.1101 7.65554 19.1101 8.11246C19.1101 9.55331 19.4693 10.9103 20.103 12.0987C19.0301 11.6825 17.8668 11.5738 16.7442 11.7729Z" fill="#AC562A" stroke="#AC562A" stroke-width="1.0716"/>
<circle cx="7.50151" cy="14.81" r="0.714401" fill="#AC562A"/>
<circle cx="17.8599" cy="27.3122" r="0.714401" fill="#AC562A"/>
<circle cx="13.4841" cy="27.9372" r="1.1609" fill="#AC562A"/>
<defs>
<radialGradient id="paint0_radial" cx="0" cy="0" r="1" gradientUnits="userSpaceOnUse" gradientTransform="translate(17.8887 18.0087) rotate(90) scale(14.3808 14.2359)">
<stop offset="0.333505" stop-color="#F7B450"/>
<stop offset="0.64773" stop-color="#FFC977"/>
<stop offset="1" stop-color="#FF9900"/>
</radialGradient>
</defs>
</svg>
