<?xml version="1.0" standalone="no"?>
<!DOCTYPE svg PUBLIC "-//W3C//DTD SVG 20010904//EN"
 "http://www.w3.org/TR/2001/REC-SVG-20010904/DTD/svg10.dtd">
<svg version="1.0" xmlns="http://www.w3.org/2000/svg"
 width="180.000000pt" height="180.000000pt" viewBox="0 0 180.000000 180.000000"
 preserveAspectRatio="xMidYMid meet">

<g transform="translate(0.000000,180.000000) scale(0.100000,-0.100000)"
fill="#ffffff" stroke="none">
<path d="M854 1658 c-68 -52 -560 -462 -566 -472 -4 -6 -8 -16 -8 -23 0 -20
239 -213 264 -213 13 0 86 53 185 135 90 74 167 135 171 135 4 0 81 -61 171
-135 102 -84 172 -135 186 -135 25 0 263 193 263 213 0 20 -8 27 -225 208
-323 269 -374 309 -394 309 -10 0 -31 -10 -47 -22z m278 -254 c245 -203 268
-223 268 -240 0 -20 -138 -127 -152 -118 -7 4 -74 58 -148 119 -200 164 -194
161 -222 143 -13 -8 -84 -66 -158 -128 -194 -162 -167 -153 -250 -85 -38 31
-70 63 -70 71 0 20 476 414 500 414 10 0 115 -79 232 -176z"/>
<path d="M573 807 c-160 -133 -294 -248 -297 -255 -10 -22 4 -37 118 -132 108
-90 145 -111 169 -93 6 6 81 67 165 137 85 69 158 126 164 126 5 0 71 -51 147
-113 177 -147 190 -157 211 -157 26 0 260 197 260 219 0 28 -586 511 -620 511
-18 0 -108 -69 -317 -243z m444 56 c279 -229 368 -307 371 -323 3 -19 -115
-120 -141 -120 -9 0 -87 59 -174 131 -87 72 -164 134 -171 136 -17 7 -48 -15
-208 -149 -78 -65 -149 -118 -159 -118 -23 0 -140 99 -140 118 0 16 478 422
495 422 5 0 62 -44 127 -97z"/>
<path d="M740 394 c-78 -64 -116 -102 -118 -118 -3 -20 18 -41 113 -120 84
-70 124 -96 143 -96 20 0 58 25 137 91 120 99 136 119 114 145 -35 42 -233
194 -252 194 -13 0 -72 -42 -137 -96z m213 -50 c37 -30 67 -63 67 -72 0 -19
-121 -122 -142 -122 -19 0 -148 109 -148 124 0 13 134 126 149 126 3 0 37 -25
74 -56z"/>
</g>
</svg>
