<?xml version="1.0" standalone="no"?>
<!DOCTYPE svg PUBLIC "-//W3C//DTD SVG 20010904//EN"
 "http://www.w3.org/TR/2001/REC-SVG-20010904/DTD/svg10.dtd">
<svg version="1.0" xmlns="http://www.w3.org/2000/svg"
 width="979.000000pt" height="145.000000pt" viewBox="0 0 979.000000 145.000000"
 preserveAspectRatio="xMidYMid meet">

<g transform="translate(0.000000,145.000000) scale(0.100000,-0.100000)"
fill="#FFFFFF" stroke="none">
<path d="M1541 1434 c-127 -34 -255 -135 -308 -243 -36 -72 -44 -190 -18 -276
20 -72 87 -142 160 -169 140 -53 400 -168 441 -196 73 -51 92 -124 55 -205
-50 -108 -166 -158 -288 -124 -88 24 -173 130 -173 217 0 22 -2 22 -125 22
-140 0 -132 6 -114 -82 28 -131 138 -275 251 -328 253 -118 557 -22 673 214
80 163 47 355 -75 438 -84 57 -242 133 -369 178 -145 52 -167 65 -192 118 -67
138 103 280 278 231 58 -16 127 -83 144 -140 l12 -39 120 0 120 0 -6 40 c-15
113 -122 257 -231 310 -103 51 -244 64 -355 34z"/>
<path d="M2831 1439 c-318 -62 -573 -332 -599 -634 -23 -265 70 -484 272 -642
128 -100 259 -151 413 -160 297 -19 573 133 693 380 22 46 40 89 40 95 0 9
-34 12 -119 12 l-118 0 -25 -38 c-156 -232 -405 -305 -641 -186 -70 36 -186
154 -221 225 -112 231 -44 509 159 654 147 105 334 123 493 48 65 -30 159
-116 202 -183 l32 -50 120 0 c139 0 133 -9 71 118 -62 131 -202 257 -353 318
-120 49 -298 67 -419 43z"/>
<path d="M4861 1434 c-127 -34 -255 -135 -308 -243 -36 -72 -44 -190 -18 -276
20 -72 87 -142 160 -169 140 -53 400 -168 441 -196 73 -51 92 -124 55 -205
-50 -108 -166 -158 -288 -124 -88 24 -173 130 -173 217 0 22 -2 22 -125 22
-140 0 -132 6 -114 -82 28 -131 138 -275 251 -328 253 -118 557 -22 673 214
80 163 47 355 -75 438 -84 57 -242 133 -369 178 -145 52 -167 65 -192 118 -67
138 103 280 278 231 58 -16 127 -83 144 -140 l12 -39 120 0 120 0 -6 40 c-15
113 -122 257 -231 310 -103 51 -244 64 -355 34z"/>
<path d="M0 720 l0 -690 331 0 c372 0 396 3 529 70 149 75 205 169 205 345 0
90 -3 105 -28 153 -27 52 -108 143 -155 174 l-24 16 44 54 c71 87 93 141 93
224 -1 158 -123 297 -293 333 -32 7 -178 11 -377 11 l-325 0 0 -690z m676 454
c53 -39 69 -71 69 -134 0 -63 -16 -95 -69 -134 -25 -19 -44 -21 -227 -24
l-199 -3 0 161 0 161 199 -3 c183 -3 202 -5 227 -24z m-6 -514 c47 -13 106
-63 130 -111 27 -51 27 -137 0 -188 -24 -48 -83 -98 -130 -111 -19 -6 -122
-10 -227 -10 l-193 0 0 215 0 215 193 0 c105 0 208 -4 227 -10z"/>
<path d="M5502 1398 c3 -7 79 -318 169 -690 l164 -678 125 0 125 0 114 457
c78 312 117 451 122 438 4 -11 56 -217 116 -458 l108 -438 125 3 125 3 160
660 c89 363 164 672 168 688 l7 27 -129 0 c-94 0 -130 -3 -134 -12 -2 -7 -51
-217 -108 -466 -56 -248 -106 -449 -110 -445 -3 5 -52 204 -108 443 -56 239
-105 445 -108 458 -5 21 -9 22 -119 22 -63 0 -114 -2 -114 -4 0 -4 -204 -871
-216 -916 -4 -17 -41 124 -115 445 -60 259 -109 471 -109 473 0 1 -59 2 -131
2 -101 0 -130 -3 -127 -12z"/>
<path d="M7766 1402 c-4 -7 -582 -1331 -593 -1359 -4 -10 24 -13 119 -13 l125
0 75 177 74 178 325 3 324 2 75 -180 75 -180 123 0 c67 0 122 3 122 7 0 4
-134 315 -297 690 l-298 683 -122 0 c-67 0 -124 -4 -127 -8z m244 -536 c61
-142 109 -260 107 -262 -2 -2 -106 -3 -230 -2 l-226 3 100 230 c55 127 107
245 115 264 8 19 16 32 18 30 2 -2 54 -120 116 -263z"/>
<path d="M8720 721 l0 -691 125 0 125 0 0 265 0 265 218 0 c238 0 300 9 382
57 67 40 148 125 178 190 24 53 27 69 27 173 0 109 -2 119 -32 183 -42 87
-111 155 -210 204 l-77 38 -368 3 -368 3 0 -690z m663 468 c47 -13 115 -72
134 -116 20 -48 17 -137 -7 -182 -24 -48 -83 -98 -130 -111 -19 -6 -119 -10
-222 -10 l-188 0 0 215 0 215 188 0 c103 0 204 -5 225 -11z"/>
</g>
</svg>
